<svg viewBox="0 0 400 400" xmlns="http://www.w3.org/2000/svg">
  <rect width="400" height="400" fill="#111111"/>
  <g fill="none" stroke="#F4F1EA" stroke-width="19" stroke-linecap="round">
    <path d="M153.51,321.49 L211.56,263.44 M238.44,236.56 L261.56,213.44 M288.44,186.56 L321.49,153.51"/>
    <path d="M128.51,296.49 L161.56,263.44 M188.44,236.56 L211.56,213.44 M238.44,186.56 L296.49,128.51"/>
    <path d="M103.51,271.49 L161.56,213.44 M188.44,186.56 L211.56,163.44 M238.44,136.56 L271.49,103.51"/>
    <path d="M78.51,246.49 L111.56,213.44 M138.44,186.56 L161.56,163.44 M188.44,136.56 L246.49,78.51"/>
    <path d="M78.51,153.51 L136.56,211.56 M163.44,238.44 L186.56,261.56 M213.44,288.44 L246.49,321.49"/>
    <path d="M103.51,128.51 L136.56,161.56 M163.44,188.44 L186.56,211.56 M213.44,238.44 L271.49,296.49"/>
    <path d="M128.51,103.51 L186.56,161.56 M213.44,188.44 L236.56,211.56 M263.44,238.44 L296.49,271.49"/>
    <path d="M153.51,78.51 L186.56,111.56 M213.44,138.44 L236.56,161.56 M263.44,188.44 L321.49,246.49"/>
  </g>
  <polygon points="160,60 240,60 340,160 340,240 240,340 160,340 60,240 60,160" fill="none" stroke="#F4F1EA" stroke-width="9" stroke-linejoin="round"/>
</svg>
