<svg xmlns="http://www.w3.org/2000/svg" viewBox="0 0 400 400" width="400" height="400" role="img" aria-label="Threaded Nexus">
  <title>Threaded Nexus</title>
  <g fill="none" stroke="#F4F1EA" stroke-linecap="round" stroke-linejoin="round">
    <path stroke-width="8" d="M50.0,200.0 L100.0,200.0 M50.0,200.0 L75.0,243.3 M50.0,200.0 L75.0,156.7 M75.0,243.3 L125.0,243.3 M75.0,243.3 L100.0,286.6 M75.0,243.3 L100.0,200.0 M100.0,286.6 L150.0,286.6 M100.0,286.6 L125.0,329.9 M100.0,286.6 L125.0,243.3 M125.0,329.9 L175.0,329.9 M125.0,329.9 L150.0,286.6 M75.0,156.7 L125.0,156.7 M75.0,156.7 L100.0,200.0 M75.0,156.7 L100.0,113.4 M100.0,200.0 L150.0,200.0 M100.0,200.0 L125.0,243.3 M100.0,200.0 L125.0,156.7 M125.0,243.3 L175.0,243.3 M125.0,243.3 L150.0,286.6 M125.0,243.3 L150.0,200.0 M150.0,286.6 L200.0,286.6 M150.0,286.6 L175.0,329.9 M150.0,286.6 L175.0,243.3 M175.0,329.9 L225.0,329.9 M175.0,329.9 L200.0,286.6 M100.0,113.4 L150.0,113.4 M100.0,113.4 L125.0,156.7 M100.0,113.4 L125.0,70.1 M125.0,156.7 L175.0,156.7 M125.0,156.7 L150.0,200.0 M125.0,156.7 L150.0,113.4 M150.0,200.0 L200.0,200.0 M150.0,200.0 L175.0,243.3 M150.0,200.0 L175.0,156.7 M175.0,243.3 L225.0,243.3 M175.0,243.3 L200.0,286.6 M175.0,243.3 L200.0,200.0 M200.0,286.6 L250.0,286.6 M200.0,286.6 L225.0,329.9 M200.0,286.6 L225.0,243.3 M225.0,329.9 L275.0,329.9 M225.0,329.9 L250.0,286.6 M125.0,70.1 L175.0,70.1 M125.0,70.1 L150.0,113.4 M150.0,113.4 L200.0,113.4 M150.0,113.4 L175.0,156.7 M150.0,113.4 L175.0,70.1 M175.0,156.7 L225.0,156.7 M175.0,156.7 L200.0,200.0 M175.0,156.7 L200.0,113.4 M200.0,200.0 L250.0,200.0 M200.0,200.0 L225.0,243.3 M200.0,200.0 L225.0,156.7 M225.0,243.3 L275.0,243.3 M225.0,243.3 L250.0,286.6 M225.0,243.3 L250.0,200.0 M250.0,286.6 L300.0,286.6 M250.0,286.6 L275.0,329.9 M250.0,286.6 L275.0,243.3 M275.0,329.9 L300.0,286.6 M175.0,70.1 L225.0,70.1 M175.0,70.1 L200.0,113.4 M200.0,113.4 L250.0,113.4 M200.0,113.4 L225.0,156.7 M200.0,113.4 L225.0,70.1 M225.0,156.7 L275.0,156.7 M225.0,156.7 L250.0,200.0 M225.0,156.7 L250.0,113.4 M250.0,200.0 L300.0,200.0 M250.0,200.0 L275.0,243.3 M250.0,200.0 L275.0,156.7 M275.0,243.3 L325.0,243.3 M275.0,243.3 L300.0,286.6 M275.0,243.3 L300.0,200.0 M300.0,286.6 L325.0,243.3 M225.0,70.1 L275.0,70.1 M225.0,70.1 L250.0,113.4 M250.0,113.4 L300.0,113.4 M250.0,113.4 L275.0,156.7 M250.0,113.4 L275.0,70.1 M275.0,156.7 L325.0,156.7 M275.0,156.7 L300.0,200.0 M275.0,156.7 L300.0,113.4 M300.0,200.0 L350.0,200.0 M300.0,200.0 L325.0,243.3 M300.0,200.0 L325.0,156.7 M325.0,243.3 L350.0,200.0 M275.0,70.1 L300.0,113.4 M300.0,113.4 L325.0,156.7 M325.0,156.7 L350.0,200.0"></path>
    <polygon stroke-width="14" points="350,200 275,329.9 125,329.9 50,200 125,70.1 275,70.1"></polygon>
  </g>
  <circle cx="200" cy="200" r="16" fill="#F4F1EA"></circle>
</svg>